<?xml version="1.0" standalone="no"?>
<!DOCTYPE svg PUBLIC "-//W3C//DTD SVG 20010904//EN"
 "http://www.w3.org/TR/2001/REC-SVG-20010904/DTD/svg10.dtd">
<svg version="1.0" xmlns="http://www.w3.org/2000/svg"
 width="1080.000000pt" height="1080.000000pt" viewBox="0 0 1080.000000 1080.000000"
 preserveAspectRatio="xMidYMid meet">
<metadata>
Created by potrace 1.14, written by Peter Selinger 2001-2017
</metadata>
<g transform="translate(0.000000,1080.000000) scale(0.100000,-0.100000)"
fill="#000000" stroke="none">
<path d="M966 7458 c-3 -18 -91 -994 -196 -2168 -104 -1174 -192 -2150 -194
-2167 l-5 -33 502 0 502 0 103 1298 c57 713 107 1301 112 1306 6 5 12 7 15 4
3 -3 195 -547 426 -1209 231 -662 433 -1243 451 -1291 l31 -88 298 0 297 0 13
38 c51 154 888 2545 893 2549 4 4 10 2 15 -3 5 -5 55 -592 111 -1304 57 -712
104 -1296 105 -1298 1 -1 227 -1 501 0 l499 3 -197 2195 c-108 1207 -197 2196
-198 2198 0 1 -240 1 -532 0 l-533 -3 -485 -1262 c-267 -695 -487 -1263 -490
-1263 -3 0 -224 568 -491 1263 l-485 1262 -532 3 -531 2 -5 -32z"/>
<path d="M6653 5963 c4 -1561 4 -1567 43 -1768 120 -622 515 -1014 1151 -1140
191 -38 289 -47 528 -47 239 0 337 9 528 47 636 126 1031 518 1151 1140 39
201 39 207 43 1768 l4 1527 -505 0 -505 0 -4 -1392 c-5 -1503 -3 -1459 -58
-1658 -49 -179 -135 -292 -273 -360 -130 -64 -186 -75 -381 -75 -195 0 -251
11 -381 75 -138 68 -224 181 -273 360 -55 199 -53 155 -58 1658 l-4 1392 -505
0 -505 0 4 -1527z"/>
</g>
</svg>
